<?xml version="1.0" encoding="UTF-8" standalone="no"?><!DOCTYPE svg PUBLIC "-//W3C//DTD SVG 1.1//EN" "http://www.w3.org/Graphics/SVG/1.1/DTD/svg11.dtd"><svg width="100%" height="100%" viewBox="0 0 136 39" version="1.1" xmlns="http://www.w3.org/2000/svg" xmlns:xlink="http://www.w3.org/1999/xlink" xml:space="preserve" xmlns:serif="http://www.serif.com/" style="fill-rule:evenodd;clip-rule:evenodd;stroke-linejoin:round;stroke-miterlimit:2;"><rect id="Artboard1" x="0" y="0" width="136" height="39" style="fill:none;"/><path d="M16.585,34.297l0,-22.65l-11.9,0l0,-6.8l33.65,0l0,6.8l-12.05,0l0,22.65l-9.7,0Z" style="fill: #ffb11f;"/><path d="M34.735,34.297l14.65,-29.4l13,0l14.6,29.4l-10.75,0l-2.45,-5.35l-15.8,0l-2.75,5.35l-10.5,0Zm16,-12.25l10.25,0l-4.85,-10.65l-0.5,0l-4.9,10.65Z" style="fill: #ffb11f;"/><path d="M84.085,34.297l-10.7,-29.35l10.65,0l5,16.7l1.15,4.35l0.5,0l0.65,-2.9l5.15,-18.15l11.5,0l5.45,18.15l0.9,2.9l0.5,0l1.15,-4.35l4.55,-16.7l10.5,0l-0.5,3l-10.3,26.35l-11.5,0l-5.3,-16.15l-1,-4.2l-0.5,0l-0.95,4.2l-5.25,16.15l-11.65,0Z" style="fill: #ffb11f;"/></svg>
